<mxfile host="app.diagrams.net" modified="2021-06-15T07:34:03.900Z" agent="5.0 (Windows NT 10.0; Win64; x64) AppleWebKit/537.36 (KHTML, like Gecko) Chrome/87.0.4280.141 Safari/537.36" etag="lqfsGJGExf4yFlZvgQ-B" version="14.7.6" type="github">
  <diagram id="C5RBs43oDa-KdzZeNtuy" name="Page-1">
    <mxGraphModel dx="2771" dy="1793" grid="1" gridSize="10" guides="1" tooltips="1" connect="1" arrows="1" fold="1" page="1" pageScale="1" pageWidth="827" pageHeight="1169" math="0" shadow="0">
      <root>
        <mxCell id="WIyWlLk6GJQsqaUBKTNV-0" />
        <mxCell id="WIyWlLk6GJQsqaUBKTNV-1" parent="WIyWlLk6GJQsqaUBKTNV-0" />
        <mxCell id="WIyWlLk6GJQsqaUBKTNV-2" value="" style="rounded=0;html=1;jettySize=auto;orthogonalLoop=1;fontSize=11;endArrow=block;endFill=0;endSize=8;strokeWidth=1;shadow=0;labelBackgroundColor=none;edgeStyle=orthogonalEdgeStyle;" parent="WIyWlLk6GJQsqaUBKTNV-1" source="WIyWlLk6GJQsqaUBKTNV-3" target="WIyWlLk6GJQsqaUBKTNV-10" edge="1">
          <mxGeometry relative="1" as="geometry" />
        </mxCell>
        <mxCell id="WIyWlLk6GJQsqaUBKTNV-3" value="创建EmailSubcribe" style="rounded=1;whiteSpace=wrap;html=1;fontSize=12;glass=0;strokeWidth=1;shadow=0;" parent="WIyWlLk6GJQsqaUBKTNV-1" vertex="1">
          <mxGeometry x="140" y="90" width="120" height="40" as="geometry" />
        </mxCell>
        <mxCell id="6DlBOUvUBX7mdSS2PFpk-38" style="edgeStyle=orthogonalEdgeStyle;rounded=0;orthogonalLoop=1;jettySize=auto;html=1;entryX=0;entryY=0.5;entryDx=0;entryDy=0;" edge="1" parent="WIyWlLk6GJQsqaUBKTNV-1" source="WIyWlLk6GJQsqaUBKTNV-7" target="WIyWlLk6GJQsqaUBKTNV-11">
          <mxGeometry relative="1" as="geometry" />
        </mxCell>
        <mxCell id="WIyWlLk6GJQsqaUBKTNV-7" value="EmailTaskMQJob生产订阅消息" style="rounded=1;whiteSpace=wrap;html=1;fontSize=12;glass=0;strokeWidth=1;shadow=0;" parent="WIyWlLk6GJQsqaUBKTNV-1" vertex="1">
          <mxGeometry x="-400" y="416.25" width="110" height="57.5" as="geometry" />
        </mxCell>
        <mxCell id="6DlBOUvUBX7mdSS2PFpk-15" style="edgeStyle=orthogonalEdgeStyle;rounded=0;orthogonalLoop=1;jettySize=auto;html=1;exitX=0.5;exitY=1;exitDx=0;exitDy=0;entryX=0.5;entryY=0;entryDx=0;entryDy=0;" edge="1" parent="WIyWlLk6GJQsqaUBKTNV-1" source="WIyWlLk6GJQsqaUBKTNV-10" target="6DlBOUvUBX7mdSS2PFpk-8">
          <mxGeometry relative="1" as="geometry" />
        </mxCell>
        <mxCell id="6DlBOUvUBX7mdSS2PFpk-17" style="edgeStyle=orthogonalEdgeStyle;rounded=0;orthogonalLoop=1;jettySize=auto;html=1;exitX=1;exitY=0.5;exitDx=0;exitDy=0;entryX=0.5;entryY=0;entryDx=0;entryDy=0;" edge="1" parent="WIyWlLk6GJQsqaUBKTNV-1" source="WIyWlLk6GJQsqaUBKTNV-10" target="WIyWlLk6GJQsqaUBKTNV-10">
          <mxGeometry relative="1" as="geometry">
            <mxPoint x="210" y="160" as="targetPoint" />
            <Array as="points">
              <mxPoint x="310" y="210" />
              <mxPoint x="310" y="170" />
            </Array>
          </mxGeometry>
        </mxCell>
        <mxCell id="WIyWlLk6GJQsqaUBKTNV-10" value="EmailSubcribeProcessJob&lt;br&gt;检查审批是否通过" style="rhombus;whiteSpace=wrap;html=1;shadow=0;fontFamily=Helvetica;fontSize=12;align=center;strokeWidth=1;spacing=6;spacingTop=-4;" parent="WIyWlLk6GJQsqaUBKTNV-1" vertex="1">
          <mxGeometry x="120" y="170" width="160" height="80" as="geometry" />
        </mxCell>
        <mxCell id="6DlBOUvUBX7mdSS2PFpk-39" style="edgeStyle=orthogonalEdgeStyle;rounded=0;orthogonalLoop=1;jettySize=auto;html=1;entryX=0;entryY=0.5;entryDx=0;entryDy=0;" edge="1" parent="WIyWlLk6GJQsqaUBKTNV-1" source="WIyWlLk6GJQsqaUBKTNV-11" target="6DlBOUvUBX7mdSS2PFpk-25">
          <mxGeometry relative="1" as="geometry" />
        </mxCell>
        <mxCell id="WIyWlLk6GJQsqaUBKTNV-11" value="MQListenner消费消息&lt;br&gt;截图" style="rounded=1;whiteSpace=wrap;html=1;fontSize=12;glass=0;strokeWidth=1;shadow=0;" parent="WIyWlLk6GJQsqaUBKTNV-1" vertex="1">
          <mxGeometry x="-230" y="415" width="120" height="60" as="geometry" />
        </mxCell>
        <mxCell id="6DlBOUvUBX7mdSS2PFpk-5" style="edgeStyle=orthogonalEdgeStyle;rounded=0;orthogonalLoop=1;jettySize=auto;html=1;exitX=0.5;exitY=1;exitDx=0;exitDy=0;entryX=0.5;entryY=0;entryDx=0;entryDy=0;" edge="1" parent="WIyWlLk6GJQsqaUBKTNV-1" source="6DlBOUvUBX7mdSS2PFpk-1" target="WIyWlLk6GJQsqaUBKTNV-3">
          <mxGeometry relative="1" as="geometry" />
        </mxCell>
        <mxCell id="6DlBOUvUBX7mdSS2PFpk-1" value="BI 订阅" style="rounded=1;whiteSpace=wrap;html=1;fontSize=12;glass=0;strokeWidth=1;shadow=0;" vertex="1" parent="WIyWlLk6GJQsqaUBKTNV-1">
          <mxGeometry x="140" y="-10" width="120" height="40" as="geometry" />
        </mxCell>
        <mxCell id="6DlBOUvUBX7mdSS2PFpk-6" value="通过jf调用" style="text;html=1;align=center;verticalAlign=middle;resizable=0;points=[];autosize=1;strokeColor=none;" vertex="1" parent="WIyWlLk6GJQsqaUBKTNV-1">
          <mxGeometry x="195" y="50" width="70" height="20" as="geometry" />
        </mxCell>
        <mxCell id="6DlBOUvUBX7mdSS2PFpk-44" style="edgeStyle=orthogonalEdgeStyle;rounded=0;orthogonalLoop=1;jettySize=auto;html=1;exitX=0.5;exitY=1;exitDx=0;exitDy=0;entryX=0.5;entryY=0;entryDx=0;entryDy=0;" edge="1" parent="WIyWlLk6GJQsqaUBKTNV-1" source="6DlBOUvUBX7mdSS2PFpk-8" target="6DlBOUvUBX7mdSS2PFpk-22">
          <mxGeometry relative="1" as="geometry" />
        </mxCell>
        <mxCell id="6DlBOUvUBX7mdSS2PFpk-8" value="SubcribeToTask定时任务（有下载保存ExportData）" style="rounded=1;whiteSpace=wrap;html=1;fontSize=12;glass=0;strokeWidth=1;shadow=0;" vertex="1" parent="WIyWlLk6GJQsqaUBKTNV-1">
          <mxGeometry x="135" y="290" width="130" height="60" as="geometry" />
        </mxCell>
        <mxCell id="6DlBOUvUBX7mdSS2PFpk-16" value="Yes" style="text;html=1;align=center;verticalAlign=middle;resizable=0;points=[];autosize=1;strokeColor=none;" vertex="1" parent="WIyWlLk6GJQsqaUBKTNV-1">
          <mxGeometry x="205" y="260" width="30" height="20" as="geometry" />
        </mxCell>
        <mxCell id="6DlBOUvUBX7mdSS2PFpk-18" value="NO" style="text;html=1;align=center;verticalAlign=middle;resizable=0;points=[];autosize=1;strokeColor=none;" vertex="1" parent="WIyWlLk6GJQsqaUBKTNV-1">
          <mxGeometry x="280" y="175" width="30" height="20" as="geometry" />
        </mxCell>
        <mxCell id="6DlBOUvUBX7mdSS2PFpk-20" value="发送订阅邮件" style="rounded=1;whiteSpace=wrap;html=1;" vertex="1" parent="WIyWlLk6GJQsqaUBKTNV-1">
          <mxGeometry x="140" y="530" width="120" height="60" as="geometry" />
        </mxCell>
        <mxCell id="6DlBOUvUBX7mdSS2PFpk-47" style="edgeStyle=orthogonalEdgeStyle;rounded=0;orthogonalLoop=1;jettySize=auto;html=1;exitX=0.5;exitY=1;exitDx=0;exitDy=0;" edge="1" parent="WIyWlLk6GJQsqaUBKTNV-1" source="6DlBOUvUBX7mdSS2PFpk-22" target="6DlBOUvUBX7mdSS2PFpk-20">
          <mxGeometry relative="1" as="geometry" />
        </mxCell>
        <mxCell id="6DlBOUvUBX7mdSS2PFpk-22" value="SendEmailJob" style="rounded=1;whiteSpace=wrap;html=1;" vertex="1" parent="WIyWlLk6GJQsqaUBKTNV-1">
          <mxGeometry x="140" y="415" width="120" height="60" as="geometry" />
        </mxCell>
        <mxCell id="6DlBOUvUBX7mdSS2PFpk-46" style="edgeStyle=orthogonalEdgeStyle;rounded=0;orthogonalLoop=1;jettySize=auto;html=1;entryX=1;entryY=0.5;entryDx=0;entryDy=0;" edge="1" parent="WIyWlLk6GJQsqaUBKTNV-1" source="6DlBOUvUBX7mdSS2PFpk-24" target="6DlBOUvUBX7mdSS2PFpk-22">
          <mxGeometry relative="1" as="geometry" />
        </mxCell>
        <mxCell id="6DlBOUvUBX7mdSS2PFpk-75" style="edgeStyle=orthogonalEdgeStyle;rounded=0;orthogonalLoop=1;jettySize=auto;html=1;entryX=0.5;entryY=0;entryDx=0;entryDy=0;" edge="1" parent="WIyWlLk6GJQsqaUBKTNV-1" source="6DlBOUvUBX7mdSS2PFpk-24" target="6DlBOUvUBX7mdSS2PFpk-74">
          <mxGeometry relative="1" as="geometry" />
        </mxCell>
        <mxCell id="6DlBOUvUBX7mdSS2PFpk-24" value="ExportDataJob准备下载数据" style="rounded=1;whiteSpace=wrap;html=1;" vertex="1" parent="WIyWlLk6GJQsqaUBKTNV-1">
          <mxGeometry x="341" y="415" width="120" height="60" as="geometry" />
        </mxCell>
        <mxCell id="6DlBOUvUBX7mdSS2PFpk-45" style="edgeStyle=orthogonalEdgeStyle;rounded=0;orthogonalLoop=1;jettySize=auto;html=1;exitX=1;exitY=0.5;exitDx=0;exitDy=0;entryX=0;entryY=0.5;entryDx=0;entryDy=0;" edge="1" parent="WIyWlLk6GJQsqaUBKTNV-1" source="6DlBOUvUBX7mdSS2PFpk-25" target="6DlBOUvUBX7mdSS2PFpk-22">
          <mxGeometry relative="1" as="geometry" />
        </mxCell>
        <mxCell id="6DlBOUvUBX7mdSS2PFpk-25" value="前端调用接口保存预览图片" style="rounded=1;whiteSpace=wrap;html=1;" vertex="1" parent="WIyWlLk6GJQsqaUBKTNV-1">
          <mxGeometry x="-40" y="415" width="120" height="60" as="geometry" />
        </mxCell>
        <mxCell id="6DlBOUvUBX7mdSS2PFpk-37" style="edgeStyle=orthogonalEdgeStyle;rounded=0;orthogonalLoop=1;jettySize=auto;html=1;entryX=0;entryY=0.5;entryDx=0;entryDy=0;" edge="1" parent="WIyWlLk6GJQsqaUBKTNV-1" source="6DlBOUvUBX7mdSS2PFpk-36" target="WIyWlLk6GJQsqaUBKTNV-3">
          <mxGeometry relative="1" as="geometry" />
        </mxCell>
        <mxCell id="6DlBOUvUBX7mdSS2PFpk-36" value="ValidJob校验订阅是否到期发通知邮件" style="rounded=1;whiteSpace=wrap;html=1;" vertex="1" parent="WIyWlLk6GJQsqaUBKTNV-1">
          <mxGeometry x="-50" y="90" width="120" height="40" as="geometry" />
        </mxCell>
        <mxCell id="6DlBOUvUBX7mdSS2PFpk-51" style="edgeStyle=orthogonalEdgeStyle;rounded=0;orthogonalLoop=1;jettySize=auto;html=1;exitX=0.5;exitY=1;exitDx=0;exitDy=0;" edge="1" parent="WIyWlLk6GJQsqaUBKTNV-1" source="6DlBOUvUBX7mdSS2PFpk-48" target="6DlBOUvUBX7mdSS2PFpk-50">
          <mxGeometry relative="1" as="geometry" />
        </mxCell>
        <mxCell id="6DlBOUvUBX7mdSS2PFpk-48" value="BI 订阅、下载" style="rounded=1;whiteSpace=wrap;html=1;fontSize=12;glass=0;strokeWidth=1;shadow=0;" vertex="1" parent="WIyWlLk6GJQsqaUBKTNV-1">
          <mxGeometry x="-960" y="-55" width="120" height="40" as="geometry" />
        </mxCell>
        <mxCell id="6DlBOUvUBX7mdSS2PFpk-54" style="edgeStyle=orthogonalEdgeStyle;rounded=0;orthogonalLoop=1;jettySize=auto;html=1;exitX=0.5;exitY=1;exitDx=0;exitDy=0;entryX=0.5;entryY=0;entryDx=0;entryDy=0;" edge="1" parent="WIyWlLk6GJQsqaUBKTNV-1" source="6DlBOUvUBX7mdSS2PFpk-49" target="6DlBOUvUBX7mdSS2PFpk-53">
          <mxGeometry relative="1" as="geometry" />
        </mxCell>
        <mxCell id="6DlBOUvUBX7mdSS2PFpk-49" value="创建EmailSubcribe" style="rounded=1;whiteSpace=wrap;html=1;fontSize=12;glass=0;strokeWidth=1;shadow=0;" vertex="1" parent="WIyWlLk6GJQsqaUBKTNV-1">
          <mxGeometry x="-960" y="165" width="120" height="40" as="geometry" />
        </mxCell>
        <mxCell id="6DlBOUvUBX7mdSS2PFpk-52" style="edgeStyle=orthogonalEdgeStyle;rounded=0;orthogonalLoop=1;jettySize=auto;html=1;exitX=0.5;exitY=1;exitDx=0;exitDy=0;entryX=0.5;entryY=0;entryDx=0;entryDy=0;" edge="1" parent="WIyWlLk6GJQsqaUBKTNV-1" source="6DlBOUvUBX7mdSS2PFpk-50" target="6DlBOUvUBX7mdSS2PFpk-49">
          <mxGeometry relative="1" as="geometry" />
        </mxCell>
        <mxCell id="6DlBOUvUBX7mdSS2PFpk-62" style="edgeStyle=orthogonalEdgeStyle;rounded=0;orthogonalLoop=1;jettySize=auto;html=1;exitX=1;exitY=0.5;exitDx=0;exitDy=0;" edge="1" parent="WIyWlLk6GJQsqaUBKTNV-1" source="6DlBOUvUBX7mdSS2PFpk-50">
          <mxGeometry relative="1" as="geometry">
            <mxPoint x="-900" y="35" as="targetPoint" />
            <Array as="points">
              <mxPoint x="-767" y="85" />
              <mxPoint x="-767" y="35" />
            </Array>
          </mxGeometry>
        </mxCell>
        <mxCell id="6DlBOUvUBX7mdSS2PFpk-50" value="EmailSubcribeProcessJob&lt;br&gt;检查审批是否通过" style="rhombus;whiteSpace=wrap;html=1;shadow=0;fontFamily=Helvetica;fontSize=12;align=center;strokeWidth=1;spacing=6;spacingTop=-4;" vertex="1" parent="WIyWlLk6GJQsqaUBKTNV-1">
          <mxGeometry x="-980" y="45" width="160" height="80" as="geometry" />
        </mxCell>
        <mxCell id="6DlBOUvUBX7mdSS2PFpk-59" style="edgeStyle=orthogonalEdgeStyle;rounded=0;orthogonalLoop=1;jettySize=auto;html=1;entryX=0.5;entryY=0;entryDx=0;entryDy=0;" edge="1" parent="WIyWlLk6GJQsqaUBKTNV-1" source="6DlBOUvUBX7mdSS2PFpk-53" target="6DlBOUvUBX7mdSS2PFpk-55">
          <mxGeometry relative="1" as="geometry" />
        </mxCell>
        <mxCell id="6DlBOUvUBX7mdSS2PFpk-69" style="edgeStyle=orthogonalEdgeStyle;rounded=0;orthogonalLoop=1;jettySize=auto;html=1;exitX=1;exitY=0.5;exitDx=0;exitDy=0;entryX=0.5;entryY=0;entryDx=0;entryDy=0;" edge="1" parent="WIyWlLk6GJQsqaUBKTNV-1" source="6DlBOUvUBX7mdSS2PFpk-53" target="6DlBOUvUBX7mdSS2PFpk-55">
          <mxGeometry relative="1" as="geometry" />
        </mxCell>
        <mxCell id="6DlBOUvUBX7mdSS2PFpk-53" value="是否创建（ExportData）" style="rhombus;whiteSpace=wrap;html=1;shadow=0;fontFamily=Helvetica;fontSize=12;align=center;strokeWidth=1;spacing=6;spacingTop=-4;" vertex="1" parent="WIyWlLk6GJQsqaUBKTNV-1">
          <mxGeometry x="-980" y="265" width="160" height="80" as="geometry" />
        </mxCell>
        <mxCell id="6DlBOUvUBX7mdSS2PFpk-58" style="edgeStyle=orthogonalEdgeStyle;rounded=0;orthogonalLoop=1;jettySize=auto;html=1;entryX=0.5;entryY=0;entryDx=0;entryDy=0;" edge="1" parent="WIyWlLk6GJQsqaUBKTNV-1" source="6DlBOUvUBX7mdSS2PFpk-55" target="6DlBOUvUBX7mdSS2PFpk-57">
          <mxGeometry relative="1" as="geometry" />
        </mxCell>
        <mxCell id="6DlBOUvUBX7mdSS2PFpk-55" value="准备预览图片和下载数据" style="rounded=1;whiteSpace=wrap;html=1;" vertex="1" parent="WIyWlLk6GJQsqaUBKTNV-1">
          <mxGeometry x="-960" y="410" width="120" height="60" as="geometry" />
        </mxCell>
        <mxCell id="6DlBOUvUBX7mdSS2PFpk-57" value="发送邮件订阅" style="rounded=1;whiteSpace=wrap;html=1;" vertex="1" parent="WIyWlLk6GJQsqaUBKTNV-1">
          <mxGeometry x="-960" y="520" width="120" height="60" as="geometry" />
        </mxCell>
        <mxCell id="6DlBOUvUBX7mdSS2PFpk-60" value="Yes" style="text;html=1;align=center;verticalAlign=middle;resizable=0;points=[];autosize=1;strokeColor=none;" vertex="1" parent="WIyWlLk6GJQsqaUBKTNV-1">
          <mxGeometry x="-902" y="135" width="30" height="20" as="geometry" />
        </mxCell>
        <mxCell id="6DlBOUvUBX7mdSS2PFpk-63" value="No" style="text;html=1;align=center;verticalAlign=middle;resizable=0;points=[];autosize=1;strokeColor=none;" vertex="1" parent="WIyWlLk6GJQsqaUBKTNV-1">
          <mxGeometry x="-802" y="45" width="30" height="20" as="geometry" />
        </mxCell>
        <mxCell id="6DlBOUvUBX7mdSS2PFpk-70" value="Yes" style="text;html=1;align=center;verticalAlign=middle;resizable=0;points=[];autosize=1;strokeColor=none;" vertex="1" parent="WIyWlLk6GJQsqaUBKTNV-1">
          <mxGeometry x="-935" y="360" width="30" height="20" as="geometry" />
        </mxCell>
        <mxCell id="6DlBOUvUBX7mdSS2PFpk-71" value="No" style="text;html=1;align=center;verticalAlign=middle;resizable=0;points=[];autosize=1;strokeColor=none;" vertex="1" parent="WIyWlLk6GJQsqaUBKTNV-1">
          <mxGeometry x="-795" y="330" width="30" height="20" as="geometry" />
        </mxCell>
        <mxCell id="6DlBOUvUBX7mdSS2PFpk-82" style="edgeStyle=orthogonalEdgeStyle;rounded=0;orthogonalLoop=1;jettySize=auto;html=1;exitX=0.5;exitY=1;exitDx=0;exitDy=0;entryX=0.5;entryY=0;entryDx=0;entryDy=0;" edge="1" parent="WIyWlLk6GJQsqaUBKTNV-1" source="6DlBOUvUBX7mdSS2PFpk-72" target="6DlBOUvUBX7mdSS2PFpk-79">
          <mxGeometry relative="1" as="geometry" />
        </mxCell>
        <mxCell id="6DlBOUvUBX7mdSS2PFpk-72" value="下载" style="rounded=1;whiteSpace=wrap;html=1;fontSize=12;glass=0;strokeWidth=1;shadow=0;" vertex="1" parent="WIyWlLk6GJQsqaUBKTNV-1">
          <mxGeometry x="341" y="-10" width="120" height="40" as="geometry" />
        </mxCell>
        <mxCell id="6DlBOUvUBX7mdSS2PFpk-74" value="发送下载邮件" style="rounded=1;whiteSpace=wrap;html=1;" vertex="1" parent="WIyWlLk6GJQsqaUBKTNV-1">
          <mxGeometry x="341" y="530" width="120" height="60" as="geometry" />
        </mxCell>
        <mxCell id="6DlBOUvUBX7mdSS2PFpk-78" style="edgeStyle=orthogonalEdgeStyle;rounded=0;orthogonalLoop=1;jettySize=auto;html=1;" edge="1" parent="WIyWlLk6GJQsqaUBKTNV-1" source="6DlBOUvUBX7mdSS2PFpk-76">
          <mxGeometry relative="1" as="geometry">
            <mxPoint x="400.99999999999955" y="410" as="targetPoint" />
          </mxGeometry>
        </mxCell>
        <mxCell id="6DlBOUvUBX7mdSS2PFpk-76" value="创建ExportData数据" style="rounded=1;whiteSpace=wrap;html=1;" vertex="1" parent="WIyWlLk6GJQsqaUBKTNV-1">
          <mxGeometry x="341" y="290" width="120" height="60" as="geometry" />
        </mxCell>
        <mxCell id="6DlBOUvUBX7mdSS2PFpk-80" style="edgeStyle=orthogonalEdgeStyle;rounded=0;orthogonalLoop=1;jettySize=auto;html=1;exitX=0.5;exitY=1;exitDx=0;exitDy=0;entryX=0.5;entryY=0;entryDx=0;entryDy=0;" edge="1" parent="WIyWlLk6GJQsqaUBKTNV-1" source="6DlBOUvUBX7mdSS2PFpk-79" target="6DlBOUvUBX7mdSS2PFpk-76">
          <mxGeometry relative="1" as="geometry" />
        </mxCell>
        <mxCell id="6DlBOUvUBX7mdSS2PFpk-79" value="ExportProcessJob&lt;br&gt;检查下载审批是否通过" style="rhombus;whiteSpace=wrap;html=1;shadow=0;fontFamily=Helvetica;fontSize=12;align=center;strokeWidth=1;spacing=6;spacingTop=-4;" vertex="1" parent="WIyWlLk6GJQsqaUBKTNV-1">
          <mxGeometry x="321" y="115" width="160" height="80" as="geometry" />
        </mxCell>
        <mxCell id="6DlBOUvUBX7mdSS2PFpk-81" value="Yes" style="text;html=1;align=center;verticalAlign=middle;resizable=0;points=[];autosize=1;strokeColor=none;" vertex="1" parent="WIyWlLk6GJQsqaUBKTNV-1">
          <mxGeometry x="405" y="230" width="30" height="20" as="geometry" />
        </mxCell>
        <mxCell id="6DlBOUvUBX7mdSS2PFpk-86" style="edgeStyle=orthogonalEdgeStyle;rounded=0;orthogonalLoop=1;jettySize=auto;html=1;exitX=1;exitY=0.5;exitDx=0;exitDy=0;entryX=0.5;entryY=0;entryDx=0;entryDy=0;" edge="1" parent="WIyWlLk6GJQsqaUBKTNV-1">
          <mxGeometry relative="1" as="geometry">
            <mxPoint x="400" y="115" as="targetPoint" />
            <mxPoint x="480" y="155" as="sourcePoint" />
            <Array as="points">
              <mxPoint x="510" y="155" />
              <mxPoint x="510" y="115" />
            </Array>
          </mxGeometry>
        </mxCell>
        <mxCell id="6DlBOUvUBX7mdSS2PFpk-87" value="No" style="text;html=1;align=center;verticalAlign=middle;resizable=0;points=[];autosize=1;strokeColor=none;" vertex="1" parent="WIyWlLk6GJQsqaUBKTNV-1">
          <mxGeometry x="481" y="125" width="30" height="20" as="geometry" />
        </mxCell>
      </root>
    </mxGraphModel>
  </diagram>
</mxfile>
